<svg width="92" height="63" viewBox="0 0 92 63" fill="none" xmlns="http://www.w3.org/2000/svg">
<g clip-path="url(#clip0_701_2045)">
<path d="M18.4473 44.4049C25.2417 44.4381 31.9189 44.5309 38.5892 44.5475C45.6726 44.5462 52.5134 44.5974 59.5123 44.5642C62.1311 44.5517 64.6627 43.6888 67.1124 42.7152C72.44 40.5975 77.8152 38.6058 83.1578 36.5256C84.1039 36.1571 84.3465 36.3137 84.3752 37.3843C84.7501 51.9934 74.5939 62.7466 60.2171 62.8809C53.7144 62.9419 47.209 63.0665 40.7077 62.953C30.5379 62.7757 21.6318 55.7412 18.7758 45.8411C18.6572 45.4284 18.5822 45.0018 18.4473 44.4035V44.4049Z" fill="#F8F8F8" fill-opacity="0.9"/>
<path d="M91.6197 32.2625C91.4548 32.3484 91.2094 32.5076 90.9422 32.6115C89.4004 33.2112 87.8613 33.822 86.3058 34.3802C85.1784 34.7846 84.5104 34.3428 84.445 33.1434C84.3809 31.9689 84.3673 30.7875 84.4095 29.613C84.4491 28.4856 85.1048 28.0244 86.1599 28.3859C87.8081 28.9509 89.4454 29.5534 91.0649 30.1974C92.0451 30.5866 92.3014 31.5146 91.6211 32.2639L91.6197 32.2625Z" fill="#F8F8F8" fill-opacity="0.9"/>
<path d="M11.2945 25.5078V31.7002C10.4684 31.7002 9.90125 31.8553 9.5918 32.1642C9.2837 32.473 9.0874 33.0838 9.00287 33.9952C8.73023 37.0242 7.5592 39.1613 5.48843 40.4078C4.38965 41.0573 2.83146 41.3828 0.813858 41.3828H0V35.1586H0.267196C1.20784 35.1586 1.87992 34.9619 2.28344 34.5686C2.68559 34.1752 2.91871 33.4869 2.98142 32.5021C3.06458 30.8983 3.21453 29.7723 3.42856 29.1227C3.64259 28.4731 4.08019 27.8291 4.73864 27.1892C5.88922 26.0687 7.48422 25.5078 9.52363 25.5078H11.2959H11.2945Z" fill="#F8F8F8" fill-opacity="0.9"/>
<path d="M12.5205 25.397H18.3879V34.2458C18.3879 35.1364 18.7587 35.5823 19.5017 35.5823C20.2447 35.5823 20.6005 35.1378 20.6005 34.2458V25.397H26.4679V34.1364C26.4679 36.1696 25.7931 37.8856 24.4448 39.2845C23.0952 40.6833 21.443 41.3828 19.4881 41.3828C17.2605 41.3828 15.4665 40.5712 14.1073 38.9465C13.0508 37.6793 12.5232 35.9189 12.5232 33.6655V25.3984L12.5205 25.397Z" fill="#F8F8F8" fill-opacity="0.9"/>
<path d="M38.1422 21.4095H44.0096V32.6752C44.0096 35.0755 43.3825 37.0297 42.127 38.538C41.4058 39.4078 40.4884 40.0989 39.3746 40.6127C38.2608 41.1266 37.1184 41.3828 35.9474 41.3828C33.6149 41.3828 31.6491 40.5975 30.0486 39.0255C28.4482 37.4535 27.6479 35.5256 27.6479 33.2417C27.6479 30.9578 28.4427 29.1185 30.0323 27.505C31.6218 25.8914 33.5045 25.084 35.6802 25.084C36.0251 25.084 36.5486 25.1158 37.2493 25.1782V31.6545C36.7681 31.2778 36.2868 31.088 35.8056 31.088C35.199 31.088 34.6782 31.311 34.2447 31.7556C33.8112 32.2016 33.5931 32.7376 33.5931 33.3663C33.5931 33.9951 33.818 34.4951 34.2679 34.93C34.7177 35.3649 35.2562 35.5824 35.8833 35.5824C37.3897 35.5824 38.1422 34.5395 38.1422 32.455V21.4095Z" fill="#F8F8F8" fill-opacity="0.9"/>
<path d="M54.414 35.1737V41.2567C53.9327 41.3411 53.4938 41.3827 53.0957 41.3827C50.7428 41.3827 48.781 40.6071 47.2133 39.0559C45.6442 37.5047 44.8604 35.5615 44.8604 33.225C44.8604 30.8885 45.6524 29.0229 47.2365 27.4412C48.8206 25.8595 50.7482 25.0673 53.0166 25.0673C55.5468 25.0673 57.5426 25.8082 59.0013 27.2916C60.46 28.7749 61.0107 30.7943 61.0107 33.3607L61.0162 41.3813H55.3233V33.7901C55.3233 32.9632 55.1215 32.3026 54.7193 31.8095C54.3172 31.3178 53.776 31.0713 53.0957 31.0713C52.4782 31.0713 51.9451 31.297 51.4953 31.7472C51.0454 32.1973 50.8205 32.7319 50.8205 33.351C50.8205 34.0006 51.0249 34.5352 51.4326 34.9549C51.8402 35.3745 52.3582 35.5837 52.9853 35.5837C53.4979 35.5837 53.9736 35.4479 54.4126 35.1751L54.414 35.1737Z" fill="#F8F8F8" fill-opacity="0.9"/>
<path d="M18.4477 18.5952C25.2421 18.5619 31.9192 18.4691 38.5896 18.4525C45.673 18.4539 52.5138 18.4026 59.5127 18.4359C62.1315 18.4483 64.663 19.3112 67.1128 20.2849C72.4404 22.4026 77.8156 24.3942 83.1582 26.4745C84.1043 26.8429 84.3469 26.6864 84.3756 25.6158C84.7491 11.0053 74.5929 0.252071 60.2161 0.117725C53.7135 0.0567842 47.208 -0.0678668 40.7067 0.0457041C30.5369 0.222986 21.6308 7.25746 18.7748 17.1575C18.6562 17.5702 18.5813 17.9968 18.4463 18.5952H18.4477Z" fill="#F8F8F8" fill-opacity="0.9"/>
</g>
<defs>
<clipPath id="clip0_701_2045">
<rect width="92" height="63" fill="white"/>
</clipPath>
</defs>
</svg>
