<svg width="125" height="85" viewBox="0 0 125 85" fill="none" xmlns="http://www.w3.org/2000/svg">
<g clip-path="url(#clip0_701_1974)">
<path d="M25.0645 59.9113C34.296 59.9561 43.3682 60.0814 52.4312 60.1038C62.0555 60.1019 71.35 60.171 80.8594 60.1262C84.4175 60.1094 87.8571 58.9452 91.1856 57.6315C98.4241 54.7743 105.727 52.0872 112.986 49.2805C114.272 48.7834 114.602 48.9946 114.64 50.439C115.15 70.1497 101.351 84.658 81.817 84.8393C72.9818 84.9215 64.1429 85.0897 55.3096 84.9365C41.4919 84.6973 29.3913 75.2063 25.5108 61.8491C25.3497 61.2922 25.2478 60.7167 25.0645 59.9094V59.9113Z" fill="#1A1A1A"/>
<path d="M124.483 43.5287C124.259 43.6445 123.926 43.8594 123.563 43.9996C121.468 44.8087 119.377 45.6328 117.263 46.3859C115.731 46.9315 114.824 46.3354 114.735 44.7172C114.648 43.1325 114.629 41.5386 114.687 39.9539C114.74 38.4328 115.631 37.8106 117.065 38.2983C119.304 39.0607 121.529 39.8736 123.729 40.7425C125.061 41.2676 125.409 42.5196 124.485 43.5306L124.483 43.5287Z" fill="#1A1A1A"/>
<path d="M15.3458 34.4153V42.7701C14.2233 42.7701 13.4528 42.9794 13.0323 43.3961C12.6137 43.8128 12.347 44.6369 12.2322 45.8665C11.8617 49.9532 10.2706 52.8366 7.4571 54.5184C5.9642 55.3948 3.84709 55.8339 1.10578 55.8339H0V47.4361H0.363038C1.64108 47.4361 2.55423 47.1708 3.1025 46.6401C3.6489 46.1094 3.96564 45.1807 4.05084 43.852C4.16383 41.6881 4.36757 40.1689 4.65837 39.2925C4.94917 38.4161 5.54374 37.5472 6.43837 36.6838C8.00166 35.1721 10.1688 34.4153 12.9397 34.4153H15.3476H15.3458Z" fill="#1A1A1A"/>
<path d="M17.0107 34.2657H24.9828V46.2047C24.9828 47.4062 25.4866 48.0079 26.496 48.0079C27.5055 48.0079 27.9889 47.4081 27.9889 46.2047V34.2657H35.961V46.057C35.961 48.8002 35.0441 51.1155 33.2123 53.0029C31.3785 54.8902 29.1336 55.8339 26.4775 55.8339C23.451 55.8339 21.0134 54.7389 19.1667 52.5469C17.7313 50.8371 17.0144 48.462 17.0144 45.4217V34.2676L17.0107 34.2657Z" fill="#1A1A1A"/>
<path d="M51.8239 28.8859H59.796V44.0856C59.796 47.324 58.9439 49.9607 57.238 51.9957C56.2582 53.1692 55.0116 54.1016 53.4984 54.7949C51.9851 55.4882 50.4329 55.8339 48.8418 55.8339C45.6727 55.8339 43.0017 54.7744 40.8272 52.6534C38.6527 50.5325 37.5654 47.9313 37.5654 44.8499C37.5654 41.7684 38.6453 39.2869 40.805 37.1099C42.9647 34.9329 45.5226 33.8434 48.4788 33.8434C48.9474 33.8434 49.6587 33.8864 50.6107 33.9705V42.7084C49.9569 42.2001 49.3031 41.9441 48.6492 41.9441C47.825 41.9441 47.1174 42.245 46.5284 42.8448C45.9394 43.4465 45.643 44.1697 45.643 45.0181C45.643 45.8664 45.9487 46.541 46.5599 47.1278C47.1711 47.7145 47.9028 48.0079 48.7548 48.0079C50.8015 48.0079 51.8239 46.6008 51.8239 43.7885V28.8859Z" fill="#1A1A1A"/>
<path d="M73.9321 47.4567V55.6639C73.2783 55.7779 72.6819 55.8339 72.141 55.8339C68.9441 55.8339 66.2787 54.7875 64.1486 52.6946C62.0167 50.6017 60.9517 47.9799 60.9517 44.8275C60.9517 41.675 62.0278 39.158 64.1801 37.0239C66.3324 34.8899 68.9515 33.821 72.0336 33.821C75.4713 33.821 78.183 34.8208 80.1649 36.8221C82.1468 38.8235 82.8951 41.548 82.8951 45.0106L82.9025 55.8321H75.1676V45.5899C75.1676 44.4743 74.8934 43.583 74.347 42.9177C73.8006 42.2543 73.0653 41.9217 72.141 41.9217C71.302 41.9217 70.5777 42.2263 69.9665 42.8336C69.3553 43.4409 69.0496 44.1622 69.0496 44.9975C69.0496 45.8739 69.3275 46.5952 69.8813 47.1614C70.4351 47.7277 71.139 48.0098 71.991 48.0098C72.6874 48.0098 73.3339 47.8267 73.9303 47.4586L73.9321 47.4567Z" fill="#1A1A1A"/>
<path d="M25.0644 25.0887C34.2959 25.0439 43.3681 24.9187 52.4311 24.8962C62.0554 24.8981 71.3499 24.829 80.8593 24.8738C84.4174 24.8906 87.857 26.0548 91.1855 27.3685C98.424 30.2257 105.727 32.9128 112.986 35.7196C114.272 36.2166 114.601 36.0055 114.64 34.561C115.148 14.8484 101.349 0.340101 81.815 0.158841C72.9798 0.0766194 64.141 -0.0915606 55.3077 0.06167C41.49 0.300859 29.3893 9.79181 25.5089 23.149C25.3477 23.7059 25.2459 24.2815 25.0625 25.0887H25.0644Z" fill="#765331"/>
</g>
<defs>
<clipPath id="clip0_701_1974">
<rect width="125" height="85" fill="white"/>
</clipPath>
</defs>
</svg>
